<svg width="34" height="34" viewBox="0 0 34 34" fill="none" xmlns="http://www.w3.org/2000/svg">
<path d="M17 32.5C25.5604 32.5 32.5 25.5604 32.5 17C32.5 8.43959 25.5604 1.5 17 1.5C8.43959 1.5 1.5 8.43959 1.5 17C1.5 25.5604 8.43959 32.5 17 32.5Z" stroke="white" stroke-width="3" stroke-linecap="round" stroke-linejoin="round"/>
<path d="M12.4895 12.3501C12.854 11.3142 13.5732 10.4407 14.52 9.88426C15.4667 9.32785 16.5798 9.12446 17.6622 9.31011C18.7445 9.49575 19.7262 10.0585 20.4334 10.8986C21.1406 11.7387 21.5277 12.802 21.526 13.9001C21.526 17.0001 16.876 18.5501 16.876 18.5501" stroke="white" stroke-width="3" stroke-linecap="round" stroke-linejoin="round"/>
<path d="M17 24.75H17.0155" stroke="white" stroke-width="3" stroke-linecap="round" stroke-linejoin="round"/>
</svg>
