<svg width="85" height="86" viewBox="0 0 85 86" fill="none" xmlns="http://www.w3.org/2000/svg">
<g clip-path="url(#clip0_9_423)">
<path d="M74.9153 69.3471C76.3254 69.231 77.4107 68.0527 77.4107 66.6379V10.0509C77.4107 8.80028 76.3408 7.81728 75.0946 7.92294V7.92294C65.8058 8.69967 56.695 10.9466 48.0948 14.5818V14.5818C45.6247 15.6195 44.0178 18.0374 44.0178 20.7166V74.2458C44.0178 75.7756 45.5766 76.8111 46.9868 76.2181V76.2181C55.8864 72.472 65.3092 70.1538 74.9153 69.3471V69.3471Z" fill="url(#paint0_linear_9_423)"/>
<path d="M85 19.0827C85 17.8252 83.9806 16.8059 82.7232 16.8059V16.8059C81.4657 16.8059 80.4464 17.8252 80.4464 19.0827V70.5559C80.4476 70.9423 80.3049 71.3149 80.0466 71.5996C79.7884 71.8842 79.4336 72.0599 79.053 72.0916L75.1658 72.4141C74.0449 72.5077 72.926 72.6239 71.8098 72.7627C71.4481 72.8069 71.0888 72.8654 70.7293 72.9163C69.9779 73.0176 69.2277 73.1203 68.48 73.2403C68.0442 73.3108 67.6114 73.3933 67.1769 73.4707C66.5077 73.5891 65.837 73.7068 65.1692 73.8402C64.7134 73.9324 64.2584 74.036 63.7936 74.1358C63.1578 74.2721 62.5218 74.4117 61.8906 74.5639C61.4175 74.6787 60.9453 74.7974 60.474 74.92C59.8597 75.0738 59.2484 75.2394 58.6374 75.412C58.1617 75.5451 57.6871 75.6826 57.2139 75.8244C56.6067 76.006 56.0087 76.1902 55.4091 76.3837L54.0025 76.8443C53.4025 77.0488 52.8048 77.2603 52.2095 77.4785C51.7545 77.6457 51.2988 77.8137 50.8334 77.9899V77.9899C50.7022 78.0404 50.7403 78.2375 50.8808 78.2375H79.4442C82.5126 78.2375 85 75.7501 85 72.6818V19.0827ZM9.90529 7.92294V7.92294C8.65911 7.81728 7.58923 8.80028 7.58923 10.0509V66.442C7.58923 67.9715 8.75952 69.2468 10.2834 69.3778V69.3778C19.8834 70.1899 29.2978 72.5219 38.1828 76.2885V76.2885C39.5122 76.848 40.9821 75.8718 40.9821 74.4295V20.712C40.9821 18.0355 39.377 15.6201 36.9095 14.5833V14.5833C28.308 10.9471 19.1957 8.69966 9.90529 7.92294Z" fill="url(#paint1_linear_9_423)"/>
<path d="M2.27679 16.8059C1.01935 16.8059 0 17.8253 0 19.0827V72.6355C0 75.7277 2.50677 78.2345 5.59903 78.2345H34.2088C34.3366 78.2345 34.3715 78.0552 34.252 78.0103V78.0103C33.8175 77.8431 33.3796 77.6834 32.9422 77.5221C32.327 77.2952 31.7091 77.0759 31.0886 76.8644C30.6395 76.7109 30.1889 76.5615 29.7377 76.416C29.1237 76.2118 28.5059 76.0193 27.8847 75.8386C27.4288 75.7036 26.9738 75.5679 26.5187 75.4389C25.8946 75.2642 25.2693 75.0986 24.6422 74.936C24.1871 74.8173 23.7315 74.6989 23.2659 74.5885C22.6299 74.4349 21.9903 74.294 21.3515 74.1552C20.8965 74.0554 20.4408 73.9543 19.9854 73.8621C19.3238 73.73 18.659 73.6116 17.9942 73.4939C17.5584 73.4166 17.1226 73.3402 16.686 73.2615C15.9523 73.1436 15.2163 73.044 14.4804 72.9434C14.1085 72.8933 13.7393 72.8332 13.368 72.7904C12.2569 72.6542 11.1435 72.5379 10.0283 72.4418L5.94241 72.0916C5.56261 72.0588 5.20891 71.8827 4.9516 71.5982C4.69428 71.3136 4.55219 70.9416 4.55357 70.5559V19.0827C4.55357 17.8253 3.53422 16.8059 2.27679 16.8059V16.8059Z" fill="url(#paint2_linear_9_423)"/>
</g>
<defs>
<linearGradient id="paint0_linear_9_423" x1="60.7143" y1="7.72656" x2="60.7143" y2="77.4666" gradientUnits="userSpaceOnUse">
<stop stop-color="#D0D6EB"/>
<stop offset="1" stop-color="#D0D6EB" stop-opacity="0.5"/>
</linearGradient>
<linearGradient id="paint1_linear_9_423" x1="46.2946" y1="7.72656" x2="46.2946" y2="78.2375" gradientUnits="userSpaceOnUse">
<stop stop-color="#D0D6EB"/>
<stop offset="1" stop-color="#D0D6EB" stop-opacity="0.5"/>
</linearGradient>
<linearGradient id="paint2_linear_9_423" x1="17.4068" y1="16.8059" x2="17.4068" y2="78.2345" gradientUnits="userSpaceOnUse">
<stop stop-color="#D0D6EB"/>
<stop offset="1" stop-color="#D0D6EB" stop-opacity="0.5"/>
</linearGradient>
<clipPath id="clip0_9_423">
<rect width="85" height="86" fill="white"/>
</clipPath>
</defs>
</svg>
