<svg width="57" height="42" viewBox="0 0 57 42" fill="none" xmlns="http://www.w3.org/2000/svg">
<path d="M29.0935 34.3081L43.2734 39.91C44.6644 40.4684 46.249 39.7632 46.8128 38.3347L54.9792 17.6424C55.543 16.2138 54.8724 14.6031 53.4814 14.0446L38.3701 7.97707C36.9791 7.41857 35.3945 8.12385 34.8307 9.55236L30.7475 19.8985" stroke="#248FE7" stroke-width="2" stroke-linecap="round" stroke-linejoin="round"/>
<path d="M22.5658 1.836L4.08083 6.85325C2.37933 7.31507 1.37351 9.1015 1.83427 10.8433L8.50841 36.0745C8.96916 37.8163 10.722 38.854 12.4235 38.3922L30.9085 33.3749C32.61 32.9131 33.6158 31.1267 33.155 29.3848L26.4809 4.15369C26.0201 2.41184 24.2673 1.37418 22.5658 1.836Z" stroke="#248FE7" stroke-width="2" stroke-linecap="round" stroke-linejoin="round"/>
<path d="M9.70605 13.5303L20.1797 10.6996" stroke="#248FE7" stroke-width="2" stroke-linecap="round"/>
<path d="M11.4919 20.2529L18.157 18.4516" stroke="#248FE7" stroke-width="2" stroke-linecap="round"/>
</svg>
