<svg width="85" height="86" viewBox="0 0 85 86" fill="none" xmlns="http://www.w3.org/2000/svg">
<path d="M56.1001 23.2917H60.7751L58.4376 17.3613L56.1001 23.2917Z" fill="url(#paint0_linear_9_428)"/>
<path d="M79.6875 1.79175H37.1875C36.2482 1.79175 35.3474 2.16928 34.6832 2.84128C34.019 3.51329 33.6459 4.42472 33.6459 5.37508V37.6251C33.6459 38.5754 34.019 39.4869 34.6832 40.1589C35.3474 40.8309 36.2482 41.2084 37.1875 41.2084H63.75L74.375 48.3751V41.2084H79.6875C80.6269 41.2084 81.5277 40.8309 82.1919 40.1589C82.8561 39.4869 83.2292 38.5754 83.2292 37.6251V5.37508C83.2292 4.42472 82.8561 3.51329 82.1919 2.84128C81.5277 2.16928 80.6269 1.79175 79.6875 1.79175ZM63.874 31.1213C61.9792 26.1943 62.2802 26.8751 61.9792 26.8751H54.7011L52.9302 31.1572C52.7565 31.5991 52.4163 31.9531 51.9846 32.1412C51.5529 32.3294 51.0649 32.3363 50.6282 32.1605C50.1914 31.9847 49.8415 31.6405 49.6556 31.2037C49.4696 30.7669 49.4627 30.2732 49.6365 29.8313L56.7198 11.9147C56.8504 11.5805 57.0772 11.2937 57.3709 11.0917C57.6646 10.8896 58.0115 10.7815 58.3667 10.7815C58.7219 10.7815 59.0688 10.8896 59.3625 11.0917C59.6562 11.2937 59.883 11.5805 60.0136 11.9147L67.0969 29.8313C67.1655 30.2366 67.0942 30.6535 66.895 31.0119C66.6958 31.3703 66.3808 31.6485 66.0029 31.7997C65.625 31.951 65.2072 31.9661 64.8195 31.8426C64.4319 31.7191 64.098 31.4644 63.874 31.1213Z" fill="url(#paint1_linear_9_428)"/>
<path d="M30.1042 37.625H5.31254C4.37323 37.625 3.4724 38.0025 2.8082 38.6745C2.14401 39.3465 1.77087 40.258 1.77087 41.2083V73.4583C1.77087 74.4087 2.14401 75.3201 2.8082 75.9921C3.4724 76.6641 4.37323 77.0417 5.31254 77.0417H10.625V84.2083L21.25 77.0417H47.8125C48.7519 77.0417 49.6527 76.6641 50.3169 75.9921C50.9811 75.3201 51.3542 74.4087 51.3542 73.4583V44.7917H37.1875C35.3089 44.7917 33.5073 44.0366 32.1789 42.6926C30.8505 41.3486 30.1042 39.5257 30.1042 37.625ZM33.6459 53.75C33.0615 53.75 33.8938 57.2079 29.1834 62.3858C30.2977 63.2554 31.4825 64.0286 32.725 64.6971C33.1454 64.9109 33.4645 65.2849 33.6123 65.7369C33.7601 66.1888 33.7244 66.6816 33.5131 67.1069C33.4084 67.3175 33.2638 67.5051 33.0875 67.6592C32.9111 67.8132 32.7065 67.9306 32.4854 68.0046C32.0387 68.1541 31.5516 68.118 31.1313 67.9042C29.5159 67.0385 27.9861 66.0186 26.5625 64.8583C25.1617 66.0186 23.6489 67.0331 22.0469 67.8863C21.6341 68.0602 21.1716 68.0696 20.7522 67.9128C20.3328 67.756 19.9876 67.4444 19.7859 67.0407C19.5841 66.637 19.5408 66.171 19.6645 65.7363C19.7883 65.3016 20.07 64.9303 20.4532 64.6971C21.6916 64.0148 22.8757 63.236 23.9948 62.3679C23.3535 61.6705 22.7618 60.9281 22.224 60.1463C21.9847 59.7562 21.9026 59.2881 21.9945 58.8386C22.0864 58.389 22.3453 57.9923 22.7179 57.7303C23.0904 57.4683 23.5482 57.3609 23.9967 57.4304C24.4452 57.4999 24.8502 57.7409 25.1282 58.1038C25.5824 58.7351 26.0795 59.3337 26.6157 59.8954C28.2502 58.1916 29.3898 56.0655 29.9094 53.75H19.4792C19.0096 53.75 18.5591 53.5612 18.227 53.2252C17.8949 52.8892 17.7084 52.4335 17.7084 51.9583C17.7084 51.4832 17.8949 51.0274 18.227 50.6914C18.5591 50.3554 19.0096 50.1667 19.4792 50.1667H24.7917V48.375C24.7917 47.8998 24.9783 47.4441 25.3104 47.1081C25.6425 46.7721 26.0929 46.5833 26.5625 46.5833C27.0322 46.5833 27.4826 46.7721 27.8147 47.1081C28.1468 47.4441 28.3334 47.8998 28.3334 48.375V50.1667H33.6459C34.1155 50.1667 34.5659 50.3554 34.898 50.6914C35.2301 51.0274 35.4167 51.4832 35.4167 51.9583C35.4167 52.4335 35.2301 52.8892 34.898 53.2252C34.5659 53.5612 34.1155 53.75 33.6459 53.75Z" fill="url(#paint2_linear_9_428)"/>
<defs>
<linearGradient id="paint0_linear_9_428" x1="58.4376" y1="17.3613" x2="58.4376" y2="23.2917" gradientUnits="userSpaceOnUse">
<stop stop-color="#D0D6EB"/>
<stop offset="1" stop-color="#D0D6EB" stop-opacity="0.5"/>
</linearGradient>
<linearGradient id="paint1_linear_9_428" x1="58.4375" y1="1.79175" x2="58.4375" y2="48.3751" gradientUnits="userSpaceOnUse">
<stop stop-color="#D0D6EB"/>
<stop offset="1" stop-color="#D0D6EB" stop-opacity="0.5"/>
</linearGradient>
<linearGradient id="paint2_linear_9_428" x1="26.5625" y1="37.625" x2="26.5625" y2="84.2083" gradientUnits="userSpaceOnUse">
<stop stop-color="#D0D6EB"/>
<stop offset="1" stop-color="#D0D6EB" stop-opacity="0.5"/>
</linearGradient>
</defs>
</svg>
