<svg width="14" height="13" viewBox="0 0 14 13" fill="none" xmlns="http://www.w3.org/2000/svg">
<path d="M9.11361 11.3919V10.2808C9.11361 9.69145 8.87948 9.12622 8.46273 8.70947C8.04599 8.29272 7.48075 8.05859 6.89138 8.05859H3.0025C2.41313 8.05859 1.84789 8.29272 1.43115 8.70947C1.0144 9.12622 0.780273 9.69145 0.780273 10.2808V11.3919" stroke="white" stroke-width="1.30435" stroke-linecap="round" stroke-linejoin="round"/>
<path d="M4.94695 5.83507C6.17425 5.83507 7.16918 4.84015 7.16918 3.61285C7.16918 2.38555 6.17425 1.39062 4.94695 1.39062C3.71965 1.39062 2.72473 2.38555 2.72473 3.61285C2.72473 4.84015 3.71965 5.83507 4.94695 5.83507Z" stroke="white" stroke-width="1.30435" stroke-linecap="round" stroke-linejoin="round"/>
<path d="M11.3358 4.16797V7.5013" stroke="white" stroke-width="1.30435" stroke-linecap="round" stroke-linejoin="round"/>
<path d="M13.0025 5.83594H9.66919" stroke="white" stroke-width="1.30435" stroke-linecap="round" stroke-linejoin="round"/>
</svg>
