<svg width="31" height="32" viewBox="0 0 31 32" fill="none" xmlns="http://www.w3.org/2000/svg">
<path d="M22.6331 17.5002L16.7396 31C15.5673 31 14.443 30.5259 13.6141 29.682C12.7851 28.8381 12.3195 27.6935 12.3195 26.5001V20.5002H3.98013C3.55298 20.5051 3.12989 20.4154 2.74017 20.2374C2.35045 20.0593 2.00342 19.7971 1.72312 19.4689C1.44282 19.1408 1.23595 18.7545 1.11685 18.3369C0.997751 17.9192 0.969265 17.4802 1.03337 17.0503L3.06663 3.5505C3.17319 2.83515 3.53011 2.18311 4.07162 1.71452C4.61312 1.24593 5.30274 0.992363 6.01339 1.00054H22.6331M22.6331 17.5002V1.00054M22.6331 17.5002H26.567C27.4009 17.5153 28.2112 17.218 28.844 16.665C29.4768 16.112 29.8882 15.3417 30 14.5003V4.00049C29.8882 3.15909 29.4768 2.38877 28.844 1.83575C28.2112 1.28274 27.4009 0.985529 26.567 1.00054H22.6331" stroke="#248FE7" stroke-width="2" stroke-linecap="round" stroke-linejoin="round"/>
</svg>
