<svg width="31" height="32" viewBox="0 0 31 32" fill="none" xmlns="http://www.w3.org/2000/svg">
<path d="M8.3669 14.4999L14.2604 1C15.4327 1 16.557 1.4741 17.3859 2.31801C18.2149 3.16192 18.6805 4.3065 18.6805 5.49997V11.4999H27.0199C27.447 11.495 27.8701 11.5847 28.2598 11.7628C28.6495 11.9408 28.9966 12.203 29.2769 12.5312C29.5572 12.8594 29.7641 13.2457 29.8832 13.6633C30.0022 14.0809 30.0307 14.5199 29.9666 14.9499L27.9334 28.4498C27.8268 29.1652 27.4699 29.8172 26.9284 30.2858C26.3869 30.7544 25.6973 31.008 24.9866 30.9998H8.3669M8.3669 14.4999V30.9998M8.3669 14.4999H3.94676C3.16523 14.4999 2.41571 14.816 1.86309 15.3786C1.31046 15.9412 1 16.7043 1 17.4999V27.9998C1 28.7955 1.31046 29.5585 1.86309 30.1211C2.41571 30.6837 3.16523 30.9998 3.94676 30.9998H8.3669" stroke="#248FE7" stroke-width="2" stroke-linecap="round" stroke-linejoin="round"/>
</svg>
